<?xml version="1.0" encoding="utf-8"?>
<!-- Generator: Adobe Illustrator 22.0.0, SVG Export Plug-In . SVG Version: 6.00 Build 0)  -->
<svg version="1.1" id="Layer_1" xmlns="http://www.w3.org/2000/svg" xmlns:xlink="http://www.w3.org/1999/xlink" x="0px" y="0px"
	 viewBox="0 0 1000 800" style="enable-background:new 0 0 1000 800;" xml:space="preserve">
<style type="text/css">
	.st0{fill:#D59B8A;}
	.st1{fill:#8FAFB1;}
	.st2{fill:#F8CC7F;}
	.st3{fill:#F5CCBD;}
</style>
<g>
	<path class="st0" d="M307.6,471.9c0-4.2,0.2-9.6,0.2-16c0-25.5-0.7-66.5-0.7-102.1c0-19.1,0.2-36.6,0.7-49.1c1.2-1.5,2-1.7,3.7-1.7
		c0.2,0,1.5,0,1.5,0c1.2,0,11.5,0.5,13,0.5h8.6c1.7,0.2,3.2,1,3.2,2.5l-1.2,96.2c8.8-11,15.5-18.2,29.2-23.8
		c5.9-2,11.3-2.9,16.2-2.9c33.6,0,39.3,44.7,39.3,76.6c0,13-0.5,26-0.5,39v6.6c-0.5,1-1.2,2-2.9,2c-5.4-0.2-17.9-1.5-17.9-1.5
		l-4.7-1v-20.9c0-8.8,0-17.7-0.7-26.5c-1.5-17.2,2.9-45.7-23.3-45.7c-19.1,0-31.2,12.3-32.6,30.9l1.5,69.2c0,0-16.7,1.5-18.2,1.5
		h-9.6c-3.2-0.5-4.4-3.9-4.7-6.6V471.9z"/>
	<path class="st0" d="M434.2,365.4v-8.1c0-1,0.5-3.4,2.2-3.4c9.1,0,20.4,1,28.2,1.2l0.7,0.5l0.5,14.7l0.5,0.7
		c14-11.3,23.6-18.4,34.6-18.4c7.6,0,16,3.2,27.2,10.8c0,0,0,0.2,0,0.7c-17.9,19.9-18.2,19.9-18.4,19.9c-7.9-3.7-14.5-5.6-19.9-5.6
		c-14.2,0-21.1,13.3-21.1,43.7c0,16,2.7,61.9,5.6,83c-10.1,0.7-12.8,0.7-22.1,0.7h-10.1L434.2,365.4z"/>
	<path class="st0" d="M537.3,392.6l30.2,0.5l1.7,110.5c-7.9,0.7-17.4,1.2-30.7,1.2L537.3,392.6z"/>
	<path class="st0" d="M645.4,365.7c14.6,0,25.1,2.1,25.1,18.1c0,10.8-9.1,20.6-20.2,20.6c-10.5,0-21.3-6.3-21.3-17.1
		C629.1,379,635.3,365.7,645.4,365.7z"/>
	<path class="st0" d="M839,404.7c0,6.1-0.2,22.3-8.8,23.1c-0.5,0-11.5,0.5-73.1,3.2c-2.5,0.7-2.7,3.4-2.7,5.9v3.7
		c0,17.7,12.8,37.1,32.4,37.1c11.5,0,28.2-11.5,30.9-25.8l22.6,8.1c-5.4,28.7-29.5,43-57.9,43c-35.3,0-58.7-30.7-58.7-65.8
		c0-41,25.3-80.8,68-80.8C815.5,356.3,839,379.9,839,404.7z M787.2,382.3c-11,0-22.1,6.9-26.5,21.1c17.4,0,34.6-0.5,51.8-2
		C808.6,389,798,382.3,787.2,382.3z"/>
	<g>
		<path class="st1" d="M207.3,531.2c0-2.1,1.6-3.7,3.7-3.7h12.7c9.7,0,15.8,5.5,15.8,13.9v0.1c0,9.3-7.5,14.2-16.6,14.2h-8.2v10
			c0,2-1.6,3.6-3.6,3.6c-2.1,0-3.7-1.6-3.7-3.6V531.2z M223.1,549.1c5.5,0,9-3.1,9-7.4v-0.1c0-4.9-3.5-7.4-9-7.4h-8.5v14.9H223.1z"
			/>
		<path class="st1" d="M246.9,565.4v-34.2c0-2.1,1.6-3.7,3.7-3.7h24.1c1.8,0,3.3,1.5,3.3,3.3c0,1.8-1.5,3.3-3.3,3.3h-20.5v10.8h17.9
			c1.8,0,3.3,1.5,3.3,3.3c0,1.8-1.5,3.2-3.3,3.2h-17.9v11.2H275c1.8,0,3.3,1.5,3.3,3.3c0,1.8-1.5,3.3-3.3,3.3h-24.4
			C248.5,569.1,246.9,567.5,246.9,565.4z"/>
		<path class="st1" d="M286.6,531.2c0-2.1,1.6-3.7,3.7-3.7h11.8c13.1,0,22.1,9,22.1,20.6v0.1c0,11.7-9,20.8-22.1,20.8h-11.8
			c-2.1,0-3.7-1.6-3.7-3.7V531.2z M302.1,562.4c8.7,0,14.4-5.9,14.4-14v-0.1c0-8.1-5.7-14.1-14.4-14.1h-8.2v28.2H302.1z"/>
		<path class="st1" d="M333.4,530.9c0-2,1.6-3.6,3.7-3.6c2,0,3.6,1.6,3.6,3.6v34.9c0,2-1.6,3.6-3.6,3.6c-2.1,0-3.7-1.6-3.7-3.6
			V530.9z"/>
		<path class="st1" d="M349.5,564.3l15.4-34.4c0.8-1.8,2.3-3,4.4-3h0.4c2.1,0,3.5,1.1,4.3,3l15.4,34.4c0.3,0.5,0.4,1.1,0.4,1.5
			c0,2-1.5,3.5-3.4,3.5c-1.7,0-2.9-1-3.6-2.6l-3.4-7.8h-20.2l-3.5,8c-0.6,1.5-1.8,2.3-3.4,2.3c-1.9,0-3.4-1.5-3.4-3.4
			C349,565.4,349.2,564.9,349.5,564.3z M376.6,552.6l-7.3-16.8l-7.3,16.8H376.6z"/>
		<path class="st1" d="M403.1,534.3h-10.1c-1.9,0-3.4-1.5-3.4-3.4c0-1.8,1.5-3.4,3.4-3.4h27.6c1.8,0,3.3,1.5,3.3,3.4
			c0,1.8-1.5,3.4-3.3,3.4h-10.1v31.4c0,2-1.7,3.6-3.7,3.6c-2,0-3.7-1.6-3.7-3.6V534.3z"/>
		<path class="st1" d="M431.4,531.2c0-2.1,1.6-3.7,3.7-3.7h14.8c5.2,0,9.3,1.5,12,4.2c2.2,2.3,3.4,5.3,3.4,9v0.1
			c0,6.6-3.9,10.7-9.4,12.4l7.9,10c0.7,0.9,1.2,1.7,1.2,2.8c0,2-1.7,3.4-3.5,3.4c-1.7,0-2.7-0.8-3.6-1.9l-10.1-12.9h-9.2v11.2
			c0,2-1.6,3.6-3.6,3.6c-2.1,0-3.7-1.6-3.7-3.6V531.2z M449.4,548.1c5.2,0,8.5-2.7,8.5-6.9v-0.1c0-4.4-3.2-6.9-8.6-6.9h-10.6v13.9
			H449.4z"/>
		<path class="st1" d="M474.7,530.9c0-2,1.6-3.6,3.7-3.6c2,0,3.6,1.6,3.6,3.6v34.9c0,2-1.6,3.6-3.6,3.6c-2.1,0-3.7-1.6-3.7-3.6
			V530.9z"/>
		<path class="st1" d="M491.2,548.4v-0.1c0-11.8,8.8-21.5,21.4-21.5c6.4,0,10.6,1.9,14.2,4.7c0.8,0.6,1.4,1.6,1.4,2.9
			c0,2-1.6,3.6-3.6,3.6c-1,0-1.7-0.4-2.2-0.7c-2.8-2.3-5.9-3.7-9.9-3.7c-7.9,0-13.7,6.5-13.7,14.7v0.1c0,8.1,5.8,14.7,13.7,14.7
			c4.4,0,7.4-1.4,10.4-4c0.5-0.5,1.3-0.8,2.2-0.8c1.8,0,3.4,1.5,3.4,3.4c0,1.1-0.5,2-1.2,2.6c-3.9,3.4-8.4,5.6-15.1,5.6
			C500.2,569.8,491.2,560.3,491.2,548.4z"/>
		<path class="st1" d="M564.8,534.3h-10.1c-1.9,0-3.4-1.5-3.4-3.4c0-1.8,1.5-3.4,3.4-3.4h27.6c1.8,0,3.3,1.5,3.3,3.4
			c0,1.8-1.5,3.4-3.3,3.4h-10.1v31.4c0,2-1.7,3.6-3.7,3.6c-2,0-3.7-1.6-3.7-3.6V534.3z"/>
		<path class="st1" d="M593.1,530.9c0-2,1.6-3.6,3.7-3.6c2,0,3.6,1.6,3.6,3.6v13.9h19.8v-13.9c0-2,1.6-3.6,3.6-3.6
			c2.1,0,3.7,1.6,3.7,3.6v34.9c0,2-1.6,3.6-3.7,3.6c-2,0-3.6-1.6-3.6-3.6v-14.2h-19.8v14.2c0,2-1.6,3.6-3.6,3.6
			c-2.1,0-3.7-1.6-3.7-3.6V530.9z"/>
		<path class="st1" d="M638.2,565.4v-34.2c0-2.1,1.6-3.7,3.7-3.7H666c1.8,0,3.3,1.5,3.3,3.3c0,1.8-1.5,3.3-3.3,3.3h-20.5v10.8h17.9
			c1.8,0,3.3,1.5,3.3,3.3c0,1.8-1.5,3.2-3.3,3.2h-17.9v11.2h20.8c1.8,0,3.3,1.5,3.3,3.3c0,1.8-1.5,3.3-3.3,3.3h-24.4
			C639.8,569.1,638.2,567.5,638.2,565.4z"/>
		<path class="st1" d="M677.9,531.2c0-2.1,1.6-3.7,3.7-3.7h14.8c5.2,0,9.3,1.5,12,4.2c2.2,2.3,3.4,5.3,3.4,9v0.1
			c0,6.6-3.9,10.7-9.4,12.4l7.9,10c0.7,0.9,1.2,1.7,1.2,2.8c0,2-1.7,3.4-3.5,3.4c-1.7,0-2.7-0.8-3.6-1.9l-10.1-12.9h-9.2v11.2
			c0,2-1.6,3.6-3.6,3.6c-2.1,0-3.7-1.6-3.7-3.6V531.2z M695.9,548.1c5.2,0,8.5-2.7,8.5-6.9v-0.1c0-4.4-3.2-6.9-8.6-6.9h-10.6v13.9
			H695.9z"/>
		<path class="st1" d="M718.4,564.3l15.4-34.4c0.8-1.8,2.3-3,4.4-3h0.4c2.1,0,3.5,1.1,4.3,3l15.4,34.4c0.3,0.5,0.4,1.1,0.4,1.5
			c0,2-1.5,3.5-3.4,3.5c-1.7,0-2.9-1-3.6-2.6l-3.4-7.8h-20.2l-3.5,8c-0.6,1.5-1.8,2.3-3.4,2.3c-1.9,0-3.4-1.5-3.4-3.4
			C717.9,565.4,718.1,564.9,718.4,564.3z M745.6,552.6l-7.3-16.8l-7.3,16.8H745.6z"/>
		<path class="st1" d="M766.6,531.2c0-2.1,1.6-3.7,3.7-3.7H783c9.7,0,15.8,5.5,15.8,13.9v0.1c0,9.3-7.5,14.2-16.6,14.2h-8.2v10
			c0,2-1.6,3.6-3.6,3.6c-2.1,0-3.7-1.6-3.7-3.6V531.2z M782.4,549.1c5.5,0,9-3.1,9-7.4v-0.1c0-4.9-3.5-7.4-9-7.4h-8.5v14.9H782.4z"
			/>
		<path class="st1" d="M817.8,552.9l-14.3-19.6c-0.5-0.7-0.8-1.5-0.8-2.6c0-2,1.6-3.5,3.7-3.5c1.6,0,2.7,0.9,3.6,2.2l11.6,16.7
			l11.7-16.7c0.9-1.3,2-2.2,3.5-2.2c2.1,0,3.6,1.6,3.6,3.6c0,1-0.5,1.9-1,2.6l-14.2,19.4v13c0,2-1.6,3.6-3.7,3.6
			c-2,0-3.6-1.6-3.6-3.6V552.9z"/>
	</g>
	<polygon class="st2" points="483.3,263.9 482.7,282.5 459.3,291.4 485.1,296.8 483.9,320.2 497.1,296.8 517.4,299.8 502.9,288.8 
		516.5,269.4 495.9,276.5 	"/>
	<polygon class="st2" points="552.9,351.3 557.5,363.9 575.1,364.9 559.2,374.2 565.3,390 551.2,376.9 538.3,383.4 545.5,372.7 
		532.1,362.4 547.4,362.7 	"/>
	<polygon class="st2" points="637.7,298.1 630,310.8 610.1,308 626,321.9 616,337.8 634.4,326.6 647.5,336.7 641.6,323.3 658.8,315 
		641.5,311.8 	"/>
	<polygon class="st2" points="575.6,286.1 571.5,274.8 582.9,273.9 570.7,268.3 569.4,259.5 564.3,267.6 551.1,264.9 561.9,274.2 
		552.9,286.4 567.1,279.5 	"/>
	<polygon class="st2" points="364,336 359.2,324.6 372.1,328.4 381.5,320.2 380.8,330.4 399.3,333.3 380.2,338 380.8,355.6 
		368.3,343 353.2,347 	"/>
	<path class="st0" d="M707.7,360.7c0,0-48.7,68.5-48.7,68.5c-0.6,0.6-1.2,1.2-1.9,1.6c-7.7,5.5-16.2-2.4-21-8.1
		c-8.9-10.5-13.9-23.3-20.9-35c-5.6-9.4-11.6-18.7-17.8-27.7c-8.9-13-18.1-25.7-28.4-37.6c-5.6-6.5-11.7-12.7-18.2-18.4
		c-5.6-5-11.8-11.3-18.6-14.4c-2.3-1.1-6.9-3.6-9.5-2.1c-8.1,4.6,8.2,18.6,11.6,22.1c6.9,7.3,13.6,14.8,19.9,22.6
		c18.8,23.4,35.1,49.1,46.8,76.8c4,9.6,7.1,19.4,10.2,29.3c0,0,16.3,51.5,16.3,51.5s11.7,26.7,25.2,7c5.3-11.3,11-22.5,16.8-33.5
		c12.2-23.1,25.3-45.9,40.1-67.4c5.9-8.6,11.7-17.2,18.4-25.3c3.3-3.9,6.7-7.7,10.4-11.3c2.5-2.4,9.1-5.8,9-9.8
		c-0.1-4.8-10.8-7.1-14.5-6.6C722.6,344.1,713.4,352.7,707.7,360.7z"/>
	<g>
		<path class="st0" d="M207.2,500.5l5.3-160.8l-41.7,0.8c-0.8,0-1.5-0.3-2-1.5c-1.3-3.6-1.5-4.6-1.5-7.1c0-6.1,0.8-11.7,0.8-17.8
			v-2.5c0.5-1.3,1.3-2,2.5-2.5l118.8-0.8l-0.5,31.5l-41.7-0.8l-4.3,162.8l-1.3,1.5c0,0-8.4,0.5-11.7,0.5c-6.4,0.3-12.7,0.8-18.8,0.8
			h-2.5c-1-0.8-1.3-1.8-1.3-2.8C207.2,501.5,207.2,500.5,207.2,500.5z"/>
	</g>
	<g>
		<path class="st0" d="M732.6,329.9C713.7,276.4,663,240.8,609.8,224c-13.2-4.2-26.8-7.3-40.5-9.2l0,0
			c-116.5-20.6-186.1,52.8-186.1,52.8l0,0c-11.1,10.6-20.3,23.2-26.1,38.1c-1.2,3.1,12.1,1.6,13.5-2.1c0,0,55.9-106.4,204.5-80.2
			c33.6,6.9,65.8,21.1,92.4,41.7c23.2,17.9,41.8,41.1,51.4,68.6C720.2,337.2,733.7,333.2,732.6,329.9z"/>
		<path class="st1" d="M752.4,315.5c-14.9-41.7-49-72-87.3-92.3c-23-12.2-48.3-22-73.9-27.3c-78.5-16.1-167.9-5.1-229.1,50.1
			c-11.9,10.7-23.7,23.3-31.3,37.6c-2.1,3.9,9.4,4.5,11.4,0.7c5.2-9.8,14-19.9,22.5-28.5c0.8-0.8,1.6-1.5,2.3-2.3
			c14.9-13.9,100.3-85.5,251.1-42.4c9.4,3.4,18.5,7.2,27.4,11.4c41.9,19.7,79.8,50.9,95.7,95.6C742.6,321.9,754.1,320.2,752.4,315.5
			z"/>
		<path class="st3" d="M702.4,336.3c-22.2-54.6-77.5-86.2-133.7-95.3c-5.4-0.9-10.8-1.5-16.3-2l0,0c0,0-0.1,0-0.2,0
			c-49.4-4-102.3,9.2-137.4,45.2c-1.8,1.8-3.5,3.7-5.2,5.6l0,0l0,0c-7.3,8.2-13.9,17.5-18,27.6c-1,2.6,3.8,2.9,5.1,2.7
			c2.6-0.3,5.5-1.5,6.6-4c0,0.1-0.1,0.2-0.1,0.2c0.3-0.5,0.5-1.1,0.8-1.6c0.9-1.8,1.9-3.6,2.9-5.4c1.3-2.2,2.6-4.3,4-6.4
			c2.8-4,51.5-71.1,164.1-52.6c14.2,3.3,28.1,8.1,41.3,14.3c33,15.5,60.5,40.8,74.4,74.9C692.4,343.7,704,340.2,702.4,336.3z"/>
	</g>
</g>
</svg>
